Results
version=1
nRows=20
nColumns=17
inDegrees=yes
endheader
time	/jointset/r_shoulder/r_shoulder_elev/value	/jointset/r_shoulder/r_shoulder_elev/speed	/jointset/r_elbow/r_elbow_flex/value	/jointset/r_elbow/r_elbow_flex/speed	/forceset/TRIlong/activation	/forceset/TRIlong/fiber_length	/forceset/TRIlat/activation	/forceset/TRIlat/fiber_length	/forceset/TRImed/activation	/forceset/TRImed/fiber_length	/forceset/BIClong/activation	/forceset/BIClong/fiber_length	/forceset/BICshort/activation	/forceset/BICshort/fiber_length	/forceset/BRA/activation	/forceset/BRA/fiber_length
      0.29692324	     -0.63552500	     24.27344324	      6.24384168	   -321.20527259	     -0.01278677	      0.13895828	     -0.01278677	      0.07307274	     -0.01278677	      0.06807624	     -0.01278677	      0.14761969	     -0.01278677	      0.14680952	     -0.01278677	      0.09190160
      0.29743813	     -0.62308503	     24.04653929	      6.07869216	   -320.28591342	     -0.01285306	      0.13890492	     -0.01285306	      0.07300994	     -0.01285306	      0.06801379	     -0.01285306	      0.14765001	     -0.01285306	      0.14684414	     -0.01285306	      0.09193133
      0.29795302	     -0.61076349	     23.81289331	      5.91402074	   -319.34661826	     -0.01291935	      0.13885178	     -0.01291935	      0.07294745	     -0.01291935	      0.06795165	     -0.01291935	      0.14768001	     -0.01291935	      0.14687840	     -0.01291935	      0.09198426
      0.29846791	     -0.59856143	     23.58306276	      5.74983064	   -318.41797756	     -0.01298564	      0.13879886	     -0.01298564	      0.07288526	     -0.01298564	      0.06788980	     -0.01298564	      0.14770971	     -0.01298564	      0.14691232	     -0.01298564	      0.09201398
      0.29898280	     -0.58647926	     23.34659745	      5.58612333	   -317.46969859	     -0.01305194	      0.13874616	     -0.01305194	      0.07282338	     -0.01305194	      0.06782827	     -0.01305194	      0.14773909	     -0.01305194	      0.14694588	     -0.01305194	      0.09206656
      0.29949769	     -0.57451801	     23.11398663	      5.42290195	   -316.53217097	     -0.01311823	      0.13869367	     -0.01311823	      0.07276180	     -0.01311823	      0.06776704	     -0.01311823	      0.14776816	     -0.01311823	      0.14697911	     -0.01311823	      0.09209629
      0.30001258	     -0.56267805	     22.87485336	      5.26016785	   -315.57531699	     -0.01318452	      0.13864140	     -0.01318452	      0.07270053	     -0.01318452	      0.06770613	     -0.01318452	      0.14779693	     -0.01318452	      0.14701199	     -0.01318452	      0.09214850
      0.30052747	     -0.55096039	     22.63960703	      5.09792410	   -314.62929192	     -0.01325081	      0.13858936	     -0.01325081	      0.07263958	     -0.01325081	      0.06764552	     -0.01325081	      0.14782539	     -0.01325081	      0.14704452	     -0.01325081	      0.09217824
      0.30104236	     -0.53936534	     22.39795575	      4.93617188	   -313.66426710	     -0.01331710	      0.13853754	     -0.01331710	      0.07257894	     -0.01331710	      0.06758523	     -0.01331710	      0.14785355	     -0.01331710	      0.14707672	     -0.01331710	      0.09223007
      0.30155725	     -0.52789388	     22.16021739	      4.77491424	   -312.71012995	     -0.01338340	      0.13848594	     -0.01338340	      0.07251861	     -0.01338340	      0.06752525	     -0.01338340	      0.14788141	     -0.01338340	      0.14710859	     -0.01338340	      0.09225983
      0.30207214	     -0.51654629	     21.91619659	      4.61415220	   -311.73733378	     -0.01344969	      0.13843456	     -0.01344969	      0.07245860	     -0.01344969	      0.06746559	     -0.01344969	      0.14790898	     -0.01344969	      0.14714011	     -0.01344969	      0.09231126
      0.30258704	     -0.50532350	     21.67610761	      4.45388874	   -310.77546343	     -0.01351598	      0.13838342	     -0.01351598	      0.07239891	     -0.01351598	      0.06740624	     -0.01351598	      0.14793624	     -0.01351598	      0.14717130	     -0.01351598	      0.09234106
      0.30310193	     -0.49422574	     21.42986398	      4.29412476	   -309.79528989	     -0.01358227	      0.13833250	     -0.01358227	      0.07233954	     -0.01358227	      0.06734722	     -0.01358227	      0.14796321	     -0.01358227	      0.14720216	     -0.01358227	      0.09239207
      0.30361682	     -0.48325394	     21.18756433	      4.13486318	   -308.82606071	     -0.01364857	      0.13828181	     -0.01364857	      0.07228049	     -0.01364857	      0.06728851	     -0.01364857	      0.14798989	     -0.01364857	      0.14723269	     -0.01364857	      0.09242191
      0.30413171	     -0.47240828	     20.93924282	      3.97610474	   -307.83889839	     -0.01371486	      0.13823134	     -0.01371486	      0.07222176	     -0.01371486	      0.06723013	     -0.01371486	      0.14801628	     -0.01371486	      0.14726290	     -0.01371486	      0.09247250
      0.30464660	     -0.46168964	     20.69486988	      3.81785233	   -306.86267701	     -0.01378115	      0.13818111	     -0.01378115	      0.07216335	     -0.01378115	      0.06717208	     -0.01378115	      0.14804238	     -0.01378115	      0.14729277	     -0.01378115	      0.09250238
      0.30516149	     -0.45109816	     20.44461334	      3.66010654	   -305.86890813	     -0.01384744	      0.13813112	     -0.01384744	      0.07210528	     -0.01384744	      0.06711434	     -0.01384744	      0.14806820	     -0.01384744	      0.14732232	     -0.01384744	      0.09255253
      0.30567638	     -0.44063472	     20.19830285	      3.50287021	   -304.88605624	     -0.01391373	      0.13808135	     -0.01391373	      0.07204753	     -0.01391373	      0.06705694	     -0.01391373	      0.14809373	     -0.01391373	      0.14735156	     -0.01391373	      0.09258247
      0.30619127	     -0.43029939	     19.94625209	      3.34614379	   -303.88605701	     -0.01398003	      0.13803182	     -0.01398003	      0.07199011	     -0.01398003	      0.06699987	     -0.01398003	      0.14811898	     -0.01398003	      0.14738047	     -0.01398003	      0.09263216
      0.30670616	     -0.42009304	     19.69813684	      3.18993007	   -302.89692754	     -0.01404632	      0.13798253	     -0.01404632	      0.07193302	     -0.01404632	      0.06694312	     -0.01404632	      0.14814394	     -0.01404632	      0.14740906	     -0.01404632	      0.09266218
